HIERARCHY
ROOT hip
{
  OFFSET 0 0 0
  CHANNELS 6 Xposition Yposition Zposition Zrotation Yrotation Xrotation
  JOINT abdomen
  {
    OFFSET 0 20.6881 -0.73152
    CHANNELS 3 Zrotation Xrotation Yrotation
    JOINT chest
    {
      OFFSET 0 11.7043 -0.48768
      CHANNELS 3 Zrotation Xrotation Yrotation
      JOINT neck
      {
        OFFSET 0 22.1894 -2.19456
        CHANNELS 3 Zrotation Xrotation Yrotation
        JOINT head
        {
          OFFSET -0.24384 7.07133 1.2192
          CHANNELS 3 Zrotation Xrotation Yrotation
          JOINT leftEye
          {
            OFFSET 4.14528 8.04674 8.04672
            CHANNELS 3 Zrotation Xrotation Yrotation
            End Site
            {
              OFFSET 1 0 0
            }
          }
          JOINT rightEye
          {
            OFFSET -3.6576 8.04674 8.04672
            CHANNELS 3 Zrotation Xrotation Yrotation
            End Site
            {
              OFFSET 1 0 0
            }
          }
        }
      }
      JOINT rCollar
      {
        OFFSET -2.68224 19.2634 -4.8768
        CHANNELS 3 Zrotation Xrotation Yrotation
        JOINT rShldr
        {
          OFFSET -8.77824 -1.95073 1.46304
          CHANNELS 3 Zrotation Xrotation Yrotation
          JOINT rForeArm
          {
            OFFSET -28.1742 -1.7115 0.48768
            CHANNELS 3 Zrotation Xrotation Yrotation
            JOINT rHand
            {
              OFFSET -22.5879 0.773209 7.07136
              CHANNELS 3 Zrotation Xrotation Yrotation
              JOINT rThumb1
              {
                OFFSET -1.2192 -0.487915 3.41376
                CHANNELS 3 Zrotation Xrotation Yrotation
                JOINT rThumb2
                {
                  OFFSET -3.37035 -0.52449 3.41376
                  CHANNELS 3 Zrotation Xrotation Yrotation
                  End Site
                  {
                    OFFSET -1.78271 -1.18214 1.43049
                  }
                }
              }
              JOINT rIndex1
              {
                OFFSET -7.75947 0.938293 5.60832
                CHANNELS 3 Zrotation Xrotation Yrotation
                JOINT rIndex2
                {
                  OFFSET -2.54057 -0.884171 1.56538
                  CHANNELS 3 Zrotation Xrotation Yrotation
                  End Site
                  {
                    OFFSET -1.62519 -0.234802 1.16502
                  }
                }
              }
              JOINT rMid1
              {
                OFFSET -8.24714 1.18213 3.41376
                CHANNELS 3 Zrotation Xrotation Yrotation
                JOINT rMid2
                {
                  OFFSET -3.10165 -0.590103 1.0647
                  CHANNELS 3 Zrotation Xrotation Yrotation
                  End Site
                  {
                    OFFSET -2.48547 -0.328903 0.83742
                  }
                }
              }
              JOINT rRing1
              {
                OFFSET -8.82822 0.546677 1.51678
                CHANNELS 3 Zrotation Xrotation Yrotation
                JOINT rRing2
                {
                  OFFSET -2.60934 -0.819778 -0.0198488
                  CHANNELS 3 Zrotation Xrotation Yrotation
                  End Site
                  {
                    OFFSET -2.33842 -0.294052 0.168128
                  }
                }
              }
              JOINT rPinky1
              {
                OFFSET -8.27202 -0.0477905 -0.4584
                CHANNELS 3 Zrotation Xrotation Yrotation
                JOINT rPinky2
                {
                  OFFSET -1.82734 -0.647385 -0.700984
                  CHANNELS 3 Zrotation Xrotation Yrotation
                  End Site
                  {
                    OFFSET -1.69225 -0.51767 -0.607171
                  }
                }
              }
            }
          }
        }
      }
      JOINT lCollar
      {
        OFFSET 2.68224 19.2634 -4.8768
        CHANNELS 3 Zrotation Xrotation Yrotation
        JOINT lShldr
        {
          OFFSET 8.77824 -1.95073 1.46304
          CHANNELS 3 Zrotation Xrotation Yrotation
          JOINT lForeArm
          {
            OFFSET 28.1742 -1.7115 0.48768
            CHANNELS 3 Zrotation Xrotation Yrotation
            JOINT lHand
            {
              OFFSET 22.5879 0.773209 7.07136
              CHANNELS 3 Zrotation Xrotation Yrotation
              JOINT lThumb1
              {
                OFFSET 1.2192 -0.487915 3.41376
                CHANNELS 3 Zrotation Xrotation Yrotation
                JOINT lThumb2
                {
                  OFFSET 3.37035 -0.52449 3.41376
                  CHANNELS 3 Zrotation Xrotation Yrotation
                  End Site
                  {
                    OFFSET 1.78271 -1.18214 1.43049
                  }
                }
              }
              JOINT lIndex1
              {
                OFFSET 7.75947 0.938293 5.60832
                CHANNELS 3 Zrotation Xrotation Yrotation
                JOINT lIndex2
                {
                  OFFSET 2.54057 -0.884171 1.56538
                  CHANNELS 3 Zrotation Xrotation Yrotation
                  End Site
                  {
                    OFFSET 1.62519 -0.234802 1.16502
                  }
                }
              }
              JOINT lMid1
              {
                OFFSET 8.24714 1.18213 3.41376
                CHANNELS 3 Zrotation Xrotation Yrotation
                JOINT lMid2
                {
                  OFFSET 3.10165 -0.590103 1.0647
                  CHANNELS 3 Zrotation Xrotation Yrotation
                  End Site
                  {
                    OFFSET 2.48547 -0.328903 0.83742
                  }
                }
              }
              JOINT lRing1
              {
                OFFSET 8.82822 0.546677 1.51678
                CHANNELS 3 Zrotation Xrotation Yrotation
                JOINT lRing2
                {
                  OFFSET 2.60934 -0.819778 -0.0198488
                  CHANNELS 3 Zrotation Xrotation Yrotation
                  End Site
                  {
                    OFFSET 2.33842 -0.294052 0.168128
                  }
                }
              }
              JOINT lPinky1
              {
                OFFSET 8.27202 -0.0477905 -0.4584
                CHANNELS 3 Zrotation Xrotation Yrotation
                JOINT lPinky2
                {
                  OFFSET 1.82734 -0.647385 -0.700984
                  CHANNELS 3 Zrotation Xrotation Yrotation
                  End Site
                  {
                    OFFSET 1.69225 -0.51767 -0.607171
                  }
                }
              }
            }
          }
        }
      }
    }
  }
  JOINT rButtock
  {
    OFFSET -8.77824 4.35084 1.2192
    CHANNELS 3 Zrotation Xrotation Yrotation
    JOINT rThigh
    {
      OFFSET 0 -1.70687 -2.19456
      CHANNELS 3 Zrotation Xrotation Yrotation
      JOINT rShin
      {
        OFFSET 0 -36.8199 0.73152
        CHANNELS 3 Zrotation Xrotation Yrotation
        JOINT rFoot
        {
          OFFSET 0.73152 -45.1104 -5.12064
          CHANNELS 3 Zrotation Xrotation Yrotation
          End Site
          {
            OFFSET -1.1221 -3.69964 12.103
          }
        }
      }
    }
  }
  JOINT lButtock
  {
    OFFSET 8.77824 4.35084 1.2192
    CHANNELS 3 Zrotation Xrotation Yrotation
    JOINT lThigh
    {
      OFFSET 0 -1.70687 -2.19456
      CHANNELS 3 Zrotation Xrotation Yrotation
      JOINT lShin
      {
        OFFSET 0 -36.8199 0.73152
        CHANNELS 3 Zrotation Xrotation Yrotation
        JOINT lFoot
        {
          OFFSET -0.73152 -45.1104 -5.12064
          CHANNELS 3 Zrotation Xrotation Yrotation
          End Site
          {
            OFFSET 1.1221 -3.69964 12.103
          }
        }
      }
    }
  }
}
MOTION
Frames:	7
Frame Time:	0.00833333
1.23662 85.1932 157.775 0.0 0.0 0.0 0.572863 -0.0032425 0.0163892 0.158164 -0.00505497 0.0274049 3.21337e-15 -7.95139e-16 -1.36664e-16 9.47333e-15 3.18055e-15 -4.09993e-16 -0.0 0.0 0.0 -0.0 0.0 0.0 1.53934e-15 5.43552e-18 9.93923e-17 3.53675e-14 -1.11816e-16 -1.98785e-16 5.724e-13 -1.6678e-13 -2.54444e-14 6.52771e-12 1.85864e-13 -2.73528e-13 1.53998e-11 4.38058e-14 -6.3293e-13 2.65958e-11 7.63333e-14 -1.0957e-12 1.5409e-11 4.96962e-14 -6.39292e-13 7.73091 5.47488 0.417314 1.54005e-11 4.41302e-14 -6.23389e-13 2.90554 0.965183 0.102902 1.54134e-11 4.51241e-14 -6.3134e-13 10.2786 0.731801 0.0259123 1.54028e-11 4.09496e-14 -6.20208e-13 2.22167 -0.733487 -0.20892 1.54193e-15 4.65902e-18 -1.98785e-16 3.06537e-14 1.80149e-16 -2.38542e-15 5.69369e-13 1.75924e-13 -2.8625e-14 6.53843e-12 -1.44218e-13 -2.54444e-13 1.5418e-11 6.77594e-14 -6.2975e-13 2.66264e-11 1.145e-13 -1.08298e-12 1.54102e-11 7.39479e-14 -6.26569e-13 -7.73091 5.47488 -0.417314 1.54158e-11 6.87795e-14 -6.2975e-13 -2.90554 0.965183 -0.102902 1.54001e-11 6.88789e-14 -6.3134e-13 -10.2786 0.731801 -0.0259123 1.54163e-11 6.63941e-14 -6.39292e-13 -2.22167 -0.733487 0.20892 -2.03217e-16 0.0 -3.88251e-19 0.920418 -4.54483 -0.0776195 -0.00189487 2.6807 -0.00763217 -0.489863 1.86451 0.0936491 2.03217e-16 0.0 3.88251e-19 -0.0477485 -2.33549 0.0218157 0.00803169 -1.3211 0.0687488 0.481304 3.65688 -0.128862
-3.12927 82.7767 147.58 -144.057 -75.2822 158.353 3.22112 -4.7752 1.06264 -0.610984 -0.0440714 0.145536 -7.41686 9.18253 -1.46025 19.6096 -6.12467 -3.53094 -0.0 0.0 0.0 -0.0 0.0 0.0 3.76991e-14 -5.10644e-13 -3.87584e-14 22.6572 9.45268 -0.108363 -3.29938 -1.35343 5.30075 0.135674 8.18625 1.10854 -7.41631e-10 -1.86892e-10 -4.51729e-10 -1.29236e-09 -3.28395e-10 -7.61018e-10 -7.41625e-10 -1.86887e-10 -4.51736e-10 7.73091 5.47488 0.417314 -7.4163e-10 -1.86891e-10 -4.51721e-10 2.90554 0.965183 0.102902 -7.41621e-10 -1.86889e-10 -4.51728e-10 10.2786 0.731801 0.0259123 -7.41629e-10 -1.86892e-10 -4.51717e-10 2.22167 -0.733487 -0.20892 3.76439e-14 -5.10643e-13 -3.90635e-14 -22.7661 14.1047 1.29356 5.39911 -2.74496 -8.0921 -0.189392 -9.68473 1.29206 -2.79908e-10 9.99635e-11 -3.25972e-10 -4.75728e-10 1.71907e-10 -5.70676e-10 -2.79916e-10 9.99669e-11 -3.25967e-10 -7.73091 5.47488 -0.417314 -2.79911e-10 9.99625e-11 -3.25971e-10 -2.90554 0.965183 -0.102902 -2.79923e-10 9.99622e-11 -3.25972e-10 -10.2786 0.731801 -0.0259123 -2.79909e-10 9.99608e-11 -3.2598e-10 -2.22167 -0.733487 0.20892 -2.03217e-16 0.0 -3.88251e-19 2.66531 -9.75768 -2.40868 0.00551399 7.87069 0.0565284 -0.0113899 -2.92385 4.69618 2.03217e-16 0.0 3.88251e-19 2.48724 -8.62246 2.48892 -0.00713541 6.77816 -0.0737655 0.797718 -0.71922 3.00827
-3.114 82.7763 147.508 -144.145 -75.1761 158.489 6.21363 -9.81494 2.19243 -1.42427 -0.0832807 0.270234 -14.7213 18.8719 -3.13425 39.5049 -12.5211 -7.40152 -0.0 0.0 0.0 -0.0 0.0 0.0 8.15783e-14 -1.10093e-12 -7.56997e-14 46.6495 19.4392 -0.233375 -6.5148 -2.74469 10.9115 -0.0792669 16.8276 2.35793 -1.58709e-09 -3.85713e-10 -9.9114e-10 -2.76612e-09 -6.78265e-10 -1.67117e-09 -1.58709e-09 -3.85707e-10 -9.91148e-10 7.73091 5.47488 0.417314 -1.58709e-09 -3.8571e-10 -9.91134e-10 2.90554 0.965183 0.102902 -1.58708e-09 -3.85709e-10 -9.91139e-10 10.2786 0.731801 0.0259123 -1.58709e-09 -3.85709e-10 -9.91129e-10 2.22167 -0.733487 -0.20892 8.14585e-14 -1.10092e-12 -7.60165e-14 -47.624 28.9937 2.95324 10.2783 -5.46928 -16.7144 0.113251 -19.9439 2.79204 -6.36992e-10 2.0057e-10 -6.69658e-10 -1.08421e-09 3.44986e-10 -1.17356e-09 -6.37001e-10 2.00571e-10 -6.69651e-10 -7.73091 5.47488 -0.417314 -6.36995e-10 2.00567e-10 -6.69657e-10 -2.90554 0.965183 -0.102902 -6.37004e-10 2.00566e-10 -6.69658e-10 -10.2786 0.731801 -0.0259123 -6.36993e-10 2.00566e-10 -6.69666e-10 -2.22167 -0.733487 0.20892 -2.03217e-16 0.0 -3.88251e-19 4.02946 -15.229 -4.99161 0.000383388 13.3544 0.126587 1.3368 -7.8942 9.65705 2.03217e-16 0.0 3.88251e-19 5.77263 -15.2239 5.22094 0.0218719 15.3401 -0.231582 1.65426 -5.3145 6.35342
-3.11268 82.7775 147.447 -144.3 -75.103 158.639 9.05443 -14.2996 3.2447 -2.1488 -0.122102 0.381799 -20.6965 27.4713 -4.87545 56.4789 -18.0877 -11.0866 -0.0 0.0 0.0 -0.0 0.0 0.0 1.10019e-13 -1.53194e-12 -1.16474e-13 68.0912 28.3576 -0.364403 -9.15608 -3.92151 15.9361 -0.622731 24.5201 3.61844 -2.25569e-09 -5.60765e-10 -1.35392e-09 -3.93027e-09 -9.85337e-10 -2.28086e-09 -2.25569e-09 -5.60759e-10 -1.35393e-09 7.73091 5.47488 0.417314 -2.25569e-09 -5.6076e-10 -1.35392e-09 2.90554 0.965183 0.102902 -2.25569e-09 -5.60759e-10 -1.35392e-09 10.2786 0.731801 0.0259123 -2.25569e-09 -5.60758e-10 -1.35391e-09 2.22167 -0.733487 -0.20892 1.09848e-13 -1.53194e-12 -1.16793e-13 -70.7735 42.212 5.08448 13.9317 -7.57922 -24.4759 0.900434 -28.9907 4.36929 -8.7056e-10 2.99755e-10 -9.76655e-10 -1.48044e-09 5.15491e-10 -1.70986e-09 -8.70569e-10 2.99753e-10 -9.76646e-10 -7.73091 5.47488 -0.417314 -8.70563e-10 2.9975e-10 -9.76653e-10 -2.90554 0.965183 -0.102902 -8.70568e-10 2.99749e-10 -9.76654e-10 -10.2786 0.731801 -0.0259123 -8.7056e-10 2.9975e-10 -9.76662e-10 -2.22167 -0.733487 0.20892 -2.03217e-16 0.0 -3.88251e-19 4.81173 -20.0531 -7.41876 -0.0161559 18.2506 0.192941 3.27165 -12.1584 14.2081 2.03217e-16 0.0 3.88251e-19 9.27828 -21.0383 7.86607 0.0910362 22.9762 -0.387992 2.87536 -9.34926 9.40739
-3.10521 82.7762 147.4 -144.435 -75.0518 158.796 11.1327 -17.4149 4.01821 -2.65171 -0.159955 0.460529 -24.4932 33.4177 -6.31867 67.8412 -21.8528 -13.8369 -0.0 0.0 0.0 -0.0 0.0 0.0 9.98625e-14 -1.56479e-12 -1.6683e-13 83.0678 34.6062 -0.473633 -10.8803 -4.69386 19.4632 -1.23617 29.8768 4.63103 -2.48215e-09 -6.76393e-10 -1.27513e-09 -4.32038e-09 -1.18541e-09 -2.13939e-09 -2.48215e-09 -6.76388e-10 -1.27514e-09 7.73091 5.47488 0.417314 -2.48215e-09 -6.76388e-10 -1.27513e-09 2.90554 0.965183 0.102902 -2.48215e-09 -6.76386e-10 -1.27513e-09 10.2786 0.731801 0.0259123 -2.48215e-09 -6.76385e-10 -1.27512e-09 2.22167 -0.733487 -0.20892 9.96742e-14 -1.56478e-12 -1.67128e-13 -87.8057 51.3449 7.33772 16.1041 -8.78434 -29.8928 1.79015 -35.0679 5.66179 -7.95337e-10 3.95384e-10 -1.19193e-09 -1.34603e-09 6.79557e-10 -2.07973e-09 -7.95345e-10 3.95381e-10 -1.19192e-09 -7.73091 5.47488 -0.417314 -7.95341e-10 3.95379e-10 -1.19193e-09 -2.90554 0.965183 -0.102902 -7.95343e-10 3.95378e-10 -1.19193e-09 -10.2786 0.731801 -0.0259123 -7.95336e-10 3.95379e-10 -1.19194e-09 -2.22167 -0.733487 0.20892 -2.03217e-16 0.0 -3.88251e-19 5.12308 -23.3813 -9.14597 -0.035049 21.6781 0.242731 5.01178 -14.996 17.4218 2.03217e-16 0.0 3.88251e-19 12.0898 -25.0317 9.88968 0.167477 28.2983 -0.511748 3.98424 -12.1081 11.5913
-3.09939 82.775 147.351 -144.531 -75.0069 158.909 11.9699 -18.635 4.35026 -2.8465 -0.195346 0.495535 -25.8956 35.7028 -6.94749 72.1608 -23.29 -14.9356 -0.0 0.0 0.0 -0.0 0.0 0.0 2.52402e-14 -9.56699e-13 -2.45517e-13 88.9476 37.1083 -0.523724 -11.5397 -4.98943 20.8691 -1.54202 32.0082 5.07541 -1.88397e-09 -6.72297e-10 -4.42303e-10 -3.26861e-09 -1.17106e-09 -7.16866e-10 -1.88398e-09 -6.72294e-10 -4.42313e-10 7.73091 5.47488 0.417314 -1.88397e-09 -6.72294e-10 -4.42301e-10 2.90554 0.965183 0.102902 -1.88397e-09 -6.72293e-10 -4.42303e-10 10.2786 0.731801 0.0259123 -1.88398e-09 -6.72291e-10 -4.42293e-10 2.22167 -0.733487 -0.20892 2.50874e-14 -9.56696e-13 -2.45749e-13 -94.6999 54.8689 8.48608 16.8412 -9.15218 -31.9267 2.17257 -37.0223 6.1416 -2.0796e-10 4.75648e-10 -1.20026e-09 -3.32606e-10 8.16422e-10 -2.07866e-09 -2.07966e-10 4.75646e-10 -1.20025e-09 -7.73091 5.47488 -0.417314 -2.07963e-10 4.75644e-10 -1.20026e-09 -2.90554 0.965183 -0.102902 -2.07966e-10 4.75644e-10 -1.20026e-09 -10.2786 0.731801 -0.0259123 -2.07958e-10 4.75645e-10 -1.20027e-09 -2.22167 -0.733487 0.20892 -2.03217e-16 0.0 -3.88251e-19 5.2533 -24.6999 -9.69415 -0.0444194 23.0435 0.263942 5.73758 -16.083 18.5635 2.03217e-16 0.0 3.88251e-19 13.321 -26.5832 10.7755 0.204663 30.38 -0.564855 4.46812 -13.1813 12.4317
-3.09608 82.7736 147.306 -144.595 -74.9861 158.983 11.8752 -18.5051 4.34764 -2.82116 -0.22903 0.499204 -25.7759 35.3925 -6.86156 71.6515 -23.1253 -14.7549 -0.0 0.0 0.0 -0.0 0.0 0.0 -9.49326e-14 1.05218e-13 -3.4373e-13 88.3142 36.9347 -0.520258 -11.4888 -4.97105 20.7549 -1.51408 31.8445 5.03919 -7.06567e-10 -5.84426e-10 9.22658e-10 -1.204e-09 -1.00663e-09 1.60978e-09 -7.06565e-10 -5.84425e-10 9.22646e-10 7.73091 5.47488 0.417314 -7.06564e-10 -5.84425e-10 9.22657e-10 2.90554 0.965183 0.102902 -7.0656e-10 -5.84424e-10 9.22657e-10 10.2786 0.731801 0.0259123 -7.0657e-10 -5.84423e-10 9.22669e-10 2.22167 -0.733487 -0.20892 -9.50124e-14 1.05219e-13 -3.43863e-13 -93.7122 54.4301 8.26754 16.6814 -9.03881 -31.5229 2.02329 -36.0478 5.9175 7.4144e-10 5.45431e-10 -1.06452e-09 1.30221e-09 9.34723e-10 -1.81919e-09 7.41436e-10 5.45431e-10 -1.06452e-09 -7.73091 5.47488 -0.417314 7.41437e-10 5.4543e-10 -1.06452e-09 -2.90554 0.965183 -0.102902 7.41432e-10 5.45431e-10 -1.06452e-09 -10.2786 0.731801 -0.0259123 7.41442e-10 5.45431e-10 -1.06453e-09 -2.22167 -0.733487 0.20892 -2.03217e-16 0.0 -3.88251e-19 5.36581 -24.605 -9.34194 -0.0437029 22.9363 0.263149 5.56827 -15.9883 18.1625 2.03217e-16 0.0 3.88251e-19 13.2612 -26.4241 10.7585 0.200242 30.1474 -0.559151 4.39571 -13.0788 12.278
